<?xml version="1.0" standalone="no"?>
<!DOCTYPE svg PUBLIC "-//W3C//DTD SVG 20010904//EN"
 "http://www.w3.org/TR/2001/REC-SVG-20010904/DTD/svg10.dtd">
<svg version="1.0" xmlns="http://www.w3.org/2000/svg"
 width="785.000000pt" height="1280.000000pt" viewBox="0 0 785.000000 1280.000000"
 preserveAspectRatio="xMidYMid meet">
<g transform="translate(0.000000,1280.000000) scale(0.100000,-0.100000)"
fill="#00bcd4" stroke="none">
<path d="M4549 12334 c-13 -15 -78 -70 -144 -123 -778 -627 -1876 -933 -3543
-987 -117 -4 -214 -10 -216 -13 -2 -3 -6 -187 -7 -408 l-3 -402 24 -26 23 -25
636 0 c777 0 991 -13 1171 -70 160 -50 206 -113 250 -340 41 -211 41 -239 38
-3910 l-3 -3535 -22 -120 c-32 -174 -67 -286 -124 -404 -95 -192 -237 -303
-488 -381 -279 -86 -605 -120 -1162 -120 l-316 0 -21 -23 c-22 -23 -22 -27
-22 -413 l0 -391 23 -21 23 -22 3385 0 3386 0 21 23 c22 23 22 27 22 413 l0
391 -22 20 c-22 20 -37 21 -408 26 -524 7 -768 37 -1019 126 -229 80 -345 178
-436 365 -83 172 -124 347 -145 631 -6 94 -10 1727 -10 4931 l0 4791 -23 21
c-23 22 -26 22 -433 22 l-411 0 -24 -26z"/>
</g>
</svg>
