<?xml version="1.0" standalone="no"?>
<!DOCTYPE svg PUBLIC "-//W3C//DTD SVG 20010904//EN"
 "http://www.w3.org/TR/2001/REC-SVG-20010904/DTD/svg10.dtd">
<svg version="1.0" xmlns="http://www.w3.org/2000/svg"
 width="878.000000pt" height="1280.000000pt" viewBox="0 0 878.000000 1280.000000"
 preserveAspectRatio="xMidYMid meet">
<metadata>
Created by potrace 1.15, written by Peter Selinger 2001-2017
</metadata>
<g transform="translate(0.000000,1280.000000) scale(0.100000,-0.100000)"
fill="#00bcd4" stroke="none">
<path d="M4854 12317 c-169 -281 -3758 -6273 -4286 -7153 l-138 -231 0 -615 0
-614 28 -27 28 -27 1838 0 1839 0 -6 -532 c-5 -556 -14 -694 -56 -885 -58
-268 -149 -413 -309 -497 -206 -107 -618 -193 -1062 -221 -52 -3 -110 -8 -127
-11 l-33 -5 0 -416 0 -417 27 -28 27 -28 2746 0 2746 0 27 28 27 28 0 417 0
416 -32 5 c-18 3 -76 8 -128 11 -243 14 -528 64 -699 121 -213 71 -314 148
-386 298 -112 232 -145 517 -145 1274 l0 442 667 0 667 0 28 27 28 27 0 526 0
527 -23 21 -23 22 -670 2 -669 3 -3 3804 -2 3805 -27 28 -27 28 -890 0 -891 0
-91 -153z m-331 -2099 c-10 -65 -174 -2286 -233 -3173 -48 -730 -130 -2111
-130 -2212 l0 -33 -1465 0 c-806 0 -1465 3 -1465 6 0 11 3285 5434 3291 5434
3 0 5 -10 2 -22z"/>
</g>
</svg>
