<?xml version="1.0" encoding="iso-8859-1"?>
<!-- Generator: Adobe Illustrator 19.0.0, SVG Export Plug-In . SVG Version: 6.00 Build 0)  -->
<svg version="1.1" id="Layer_1" xmlns="http://www.w3.org/2000/svg" xmlns:xlink="http://www.w3.org/1999/xlink" x="0px" y="0px"
	 viewBox="0 0 512 512" style="enable-background:new 0 0 512 512;" xml:space="preserve">
<path style="fill:#FF7976;" d="M493.268,512H18.732C8.387,512,0,503.613,0,493.268V18.732C0,8.387,8.387,0,18.732,0h474.537
	C503.613,0,512,8.387,512,18.732v474.537C512,503.613,503.613,512,493.268,512z"/>
<path style="fill:#FF5752;" d="M493.268,0H256v512h237.268c10.345,0,18.732-8.387,18.732-18.732V18.732
	C512,8.387,503.613,0,493.268,0z"/>
<path style="fill:#EFEFEF;" d="M136.037,293.788v-79.576c0-51.648,32.13-70.867,73.571-70.867s73.87,19.219,73.87,70.867v79.576
	c0,51.648-32.431,70.867-73.87,70.867S136.037,345.436,136.037,293.788z M236.633,214.212c0-20.72-10.21-30.028-27.026-30.028
	s-26.725,9.308-26.725,30.028v79.576c0,20.72,9.91,30.029,26.725,30.029s27.026-9.31,27.026-30.029V214.212z M224.922,254.151
	c0,9.009-5.706,15.315-15.014,15.315c-9.609,0-15.315-6.306-15.315-15.315c0-9.308,5.706-15.014,15.315-15.014
	C219.216,239.135,224.922,244.841,224.922,254.151z"/>
<g>
	<path style="fill:#C5D8DF;" d="M256,154.947v198.105c16.847-10.793,27.477-29.712,27.477-59.265v-79.576
		C283.477,184.66,272.847,165.741,256,154.947z"/>
	<path style="fill:#C5D8DF;" d="M325.515,195.594L316.807,201c-10.977,7.317-22.221-3.016-22.221-16.215
		c0-6.306,2.702-12.312,8.709-15.914l39.638-24.023c8.945-5.591,29.428,0.341,29.428,12.613v190.982
		c0,9.608-11.711,14.413-23.422,14.413s-23.422-4.805-23.422-14.413V195.594H325.515z"/>
</g>
<g>
</g>
<g>
</g>
<g>
</g>
<g>
</g>
<g>
</g>
<g>
</g>
<g>
</g>
<g>
</g>
<g>
</g>
<g>
</g>
<g>
</g>
<g>
</g>
<g>
</g>
<g>
</g>
<g>
</g>
</svg>
